REM DIRINDEX 1\2,1\3,1\4,1\5
REM DIRNAME "folder01","folder02","folder03","folder04","folder05"
TITLE ""
FILE "P1Q_t_1168-1177.mp3" MP3
  TRACK 01 AUDIO
    TITLE "3:cjc173_4466"
    INDEX 01 00:00:00
  TRACK 02 AUDIO
    TITLE "0:"
    INDEX 01 00:01:22
  TRACK 03 AUDIO
    TITLE "4:cjc173_4467"
    INDEX 01 00:01:45
  TRACK 04 AUDIO
    TITLE "0:"
    INDEX 01 00:06:09
  TRACK 05 AUDIO
    TITLE "5:cjc173_4468"
    INDEX 01 00:06:31
  TRACK 06 AUDIO
    TITLE "0:"
    INDEX 01 00:10:38
  TRACK 07 AUDIO
    TITLE "3:cjc173_4469"
    INDEX 01 00:11:10
  TRACK 08 AUDIO
    TITLE "0:"
    INDEX 01 00:12:45
  TRACK 09 AUDIO
    TITLE "4:cjc173_4470"
    INDEX 01 00:12:66
  TRACK 10 AUDIO
    TITLE "0:"
    INDEX 01 00:16:58
  TRACK 11 AUDIO
    TITLE "5:cjc173_4471"
    INDEX 01 00:17:05
  TRACK 12 AUDIO
    TITLE "0:"
    INDEX 01 00:20:66
  TRACK 13 AUDIO
    TITLE "3:cjc173_4472"
    INDEX 01 00:21:36
  TRACK 14 AUDIO
    TITLE "0:"
    INDEX 01 00:22:53
  TRACK 15 AUDIO
    TITLE "4:cjc173_4473"
    INDEX 01 00:22:75
  TRACK 16 AUDIO
    TITLE "0:"
    INDEX 01 00:25:65
  TRACK 17 AUDIO
    TITLE "5:cjc173_4474"
    INDEX 01 00:26:08
  TRACK 18 AUDIO
    TITLE "0:"
    INDEX 01 00:30:64
  TRACK 19 AUDIO
    TITLE "3:cjc173_4475"
    INDEX 01 00:31:36
  TRACK 20 AUDIO
    TITLE "0:"
    INDEX 01 00:32:59
  TRACK 21 AUDIO
    TITLE "4:cjc173_4476"
    INDEX 01 00:33:06
  TRACK 22 AUDIO
    TITLE "0:"
    INDEX 01 00:36:20
  TRACK 23 AUDIO
    TITLE "5:cjc173_4477"
    INDEX 01 00:36:39
  TRACK 24 AUDIO
    TITLE "0:"
    INDEX 01 00:41:48
  TRACK 25 AUDIO
    TITLE "3:cjc173_4478"
    INDEX 01 00:42:19
  TRACK 26 AUDIO
    TITLE "0:"
    INDEX 01 00:43:53
  TRACK 27 AUDIO
    TITLE "4:cjc173_4479"
    INDEX 01 00:43:75
  TRACK 28 AUDIO
    TITLE "0:"
    INDEX 01 00:45:33
  TRACK 29 AUDIO
    TITLE "5:cjc173_4480"
    INDEX 01 00:45:52
  TRACK 30 AUDIO
    TITLE "0:"
    INDEX 01 00:49:73
  TRACK 31 AUDIO
    TITLE "3:cjc173_4481"
    INDEX 01 00:50:42
  TRACK 32 AUDIO
    TITLE "0:"
    INDEX 01 00:51:59
  TRACK 33 AUDIO
    TITLE "4:cjc173_4482"
    INDEX 01 00:52:05
  TRACK 34 AUDIO
    TITLE "0:"
    INDEX 01 00:55:72
  TRACK 35 AUDIO
    TITLE "5:cjc173_4483"
    INDEX 01 00:56:17
  TRACK 36 AUDIO
    TITLE "0:"
    INDEX 01 01:01:26
  TRACK 37 AUDIO
    TITLE "3:cjc173_4484"
    INDEX 01 01:01:75
  TRACK 38 AUDIO
    TITLE "0:"
    INDEX 01 01:03:30
  TRACK 39 AUDIO
    TITLE "4:cjc173_4485"
    INDEX 01 01:03:50
  TRACK 40 AUDIO
    TITLE "0:"
    INDEX 01 01:06:46
  TRACK 41 AUDIO
    TITLE "5:cjc173_4486"
    INDEX 01 01:06:66
  TRACK 42 AUDIO
    TITLE "0:"
    INDEX 01 01:11:69
  TRACK 43 AUDIO
    TITLE "3:cjc173_4487"
    INDEX 01 01:12:41
  TRACK 44 AUDIO
    TITLE "0:"
    INDEX 01 01:13:62
  TRACK 45 AUDIO
    TITLE "4:cjc173_4488"
    INDEX 01 01:14:09
  TRACK 46 AUDIO
    TITLE "0:"
    INDEX 01 01:17:25
  TRACK 47 AUDIO
    TITLE "5:cjc173_4489"
    INDEX 01 01:17:46
  TRACK 48 AUDIO
    TITLE "0:"
    INDEX 01 01:22:57
  TRACK 49 AUDIO
    TITLE "3:cjc173_4490"
    INDEX 01 01:23:29
  TRACK 50 AUDIO
    TITLE "0:"
    INDEX 01 01:24:44
  TRACK 51 AUDIO
    TITLE "4:cjc173_4491"
    INDEX 01 01:24:64
  TRACK 52 AUDIO
    TITLE "0:"
    INDEX 01 01:26:10
  TRACK 53 AUDIO
    TITLE "5:cjc173_4492"
    INDEX 01 01:26:28
  TRACK 54 AUDIO
    TITLE "0:"
    INDEX 01 01:30:10
  TRACK 55 AUDIO
    TITLE "3:cjc173_4493"
    INDEX 01 01:30:55
  TRACK 56 AUDIO
    TITLE "0:"
    INDEX 01 01:32:16
  TRACK 57 AUDIO
    TITLE "4:cjc173_4494"
    INDEX 01 01:32:40
  TRACK 58 AUDIO
    TITLE "0:"
    INDEX 01 01:35:03
  TRACK 59 AUDIO
    TITLE "5:cjc173_4495"
    INDEX 01 01:35:21
  TRACK 60 AUDIO
    TITLE "0:"
    INDEX 01 01:39:46
